<svg version="1.2" xmlns="http://www.w3.org/2000/svg" xmlns:xlink="http://www.w3.org/1999/xlink" overflow="visible" preserveAspectRatio="none" viewBox="0 0 18.857142857142858 18.857142857142858" width="18.857142857142858" height="18.857142857142858"><g transform="translate(0, 0)"><defs><path id="path-163475296912816448" d="M17.809523809523835 3.1428571428570526 C18.388107833123822 2.564273119257061 18.38810783312381 1.6262030712189897 17.809523809523814 1.0476190476190104 C17.809523809523814 1.0476190476190104 17.809523809523814 1.0476190476190104 17.809523809523814 1.0476190476190104 C17.230939785923816 0.46903502401903097 16.29286973788573 0.46903502401903635 15.714285714285738 1.0476190476190224 C15.714285714285738 1.0476190476190224 9.428571428571429 7.333333333333274 9.428571428571429 7.333333333333274 C9.428571428571429 7.333333333333274 3.1428571428571193 1.0476190476190224 3.1428571428571193 1.0476190476190224 C2.564273119257128 0.4690350240190363 1.6262030712190418 0.46903502401903097 1.047619047619044 1.0476190476190104 C1.047619047619044 1.0476190476190104 1.047619047619044 1.0476190476190104 1.047619047619044 1.0476190476190104 C0.46903502401904595 1.6262030712189897 0.46903502401903624 2.564273119257061 1.0476190476190221 3.1428571428570526 C1.0476190476190221 3.1428571428570526 7.333333333333341 9.428571428571429 7.333333333333341 9.428571428571429 C7.333333333333341 9.428571428571429 1.0476190476190657 15.714285714285646 1.0476190476190657 15.714285714285646 C0.4690350240190557 16.292869737885653 0.46903502401904595 17.230939785923763 1.047619047619044 17.809523809523782 C1.047619047619044 17.809523809523782 1.047619047619044 17.809523809523782 1.047619047619044 17.809523809523782 C1.6262030712190418 18.388107833123797 2.5642731192571393 18.3881078331238 3.1428571428571437 17.809523809523792 C3.1428571428571437 17.809523809523792 9.428571428571429 11.52380952380945 9.428571428571429 11.52380952380945 C9.428571428571429 11.52380952380945 15.714285714285765 17.809523809523842 15.714285714285765 17.809523809523842 C16.29286973788574 18.388107833123826 17.230939785923802 18.388107833123826 17.809523809523782 17.809523809523846 C17.809523809523782 17.809523809523846 17.809523809523782 17.809523809523846 17.809523809523782 17.809523809523846 C18.38810783312376 17.230939785923866 18.38810783312376 16.292869737885802 17.80952380952379 15.714285714285818 C17.80952380952379 15.714285714285818 11.523809523809517 9.428571428571429 11.523809523809517 9.428571428571429 C11.523809523809517 9.428571428571429 17.809523809523835 3.1428571428570526 17.809523809523835 3.1428571428570526 Z" vector-effect="non-scaling-stroke"/></defs><g transform="translate(0, 0)"><path d="M17.809523809523835 3.1428571428570526 C18.388107833123822 2.564273119257061 18.38810783312381 1.6262030712189897 17.809523809523814 1.0476190476190104 C17.809523809523814 1.0476190476190104 17.809523809523814 1.0476190476190104 17.809523809523814 1.0476190476190104 C17.230939785923816 0.46903502401903097 16.29286973788573 0.46903502401903635 15.714285714285738 1.0476190476190224 C15.714285714285738 1.0476190476190224 9.428571428571429 7.333333333333274 9.428571428571429 7.333333333333274 C9.428571428571429 7.333333333333274 3.1428571428571193 1.0476190476190224 3.1428571428571193 1.0476190476190224 C2.564273119257128 0.4690350240190363 1.6262030712190418 0.46903502401903097 1.047619047619044 1.0476190476190104 C1.047619047619044 1.0476190476190104 1.047619047619044 1.0476190476190104 1.047619047619044 1.0476190476190104 C0.46903502401904595 1.6262030712189897 0.46903502401903624 2.564273119257061 1.0476190476190221 3.1428571428570526 C1.0476190476190221 3.1428571428570526 7.333333333333341 9.428571428571429 7.333333333333341 9.428571428571429 C7.333333333333341 9.428571428571429 1.0476190476190657 15.714285714285646 1.0476190476190657 15.714285714285646 C0.4690350240190557 16.292869737885653 0.46903502401904595 17.230939785923763 1.047619047619044 17.809523809523782 C1.047619047619044 17.809523809523782 1.047619047619044 17.809523809523782 1.047619047619044 17.809523809523782 C1.6262030712190418 18.388107833123797 2.5642731192571393 18.3881078331238 3.1428571428571437 17.809523809523792 C3.1428571428571437 17.809523809523792 9.428571428571429 11.52380952380945 9.428571428571429 11.52380952380945 C9.428571428571429 11.52380952380945 15.714285714285765 17.809523809523842 15.714285714285765 17.809523809523842 C16.29286973788574 18.388107833123826 17.230939785923802 18.388107833123826 17.809523809523782 17.809523809523846 C17.809523809523782 17.809523809523846 17.809523809523782 17.809523809523846 17.809523809523782 17.809523809523846 C18.38810783312376 17.230939785923866 18.38810783312376 16.292869737885802 17.80952380952379 15.714285714285818 C17.80952380952379 15.714285714285818 11.523809523809517 9.428571428571429 11.523809523809517 9.428571428571429 C11.523809523809517 9.428571428571429 17.809523809523835 3.1428571428570526 17.809523809523835 3.1428571428570526 Z" style="stroke: rgb(140, 140, 140); stroke-width: 0; stroke-linecap: butt; stroke-linejoin: miter; fill: rgb(68, 112, 191);" vector-effect="non-scaling-stroke"/></g></g></svg>